<svg xmlns="http://www.w3.org/2000/svg" width="512" height="512" viewBox="0 0 512 512" shape-rendering="crispEdges">
<rect x="64" y="224" width="16" height="16" fill="#C9CED6"/>
<rect x="64" y="240" width="16" height="16" fill="#C9CED6"/>
<rect x="64" y="256" width="16" height="16" fill="#C9CED6"/>
<rect x="80" y="192" width="16" height="16" fill="#C9CED6"/>
<rect x="80" y="208" width="16" height="16" fill="#C9CED6"/>
<rect x="80" y="224" width="16" height="16" fill="#C9CED6"/>
<rect x="80" y="240" width="16" height="16" fill="#C9CED6"/>
<rect x="80" y="256" width="16" height="16" fill="#C9CED6"/>
<rect x="80" y="272" width="16" height="16" fill="#C9CED6"/>
<rect x="96" y="176" width="16" height="16" fill="#C9CED6"/>
<rect x="96" y="192" width="16" height="16" fill="#C9CED6"/>
<rect x="96" y="208" width="16" height="16" fill="#C9CED6"/>
<rect x="96" y="224" width="16" height="16" fill="#C9CED6"/>
<rect x="96" y="240" width="16" height="16" fill="#C9CED6"/>
<rect x="96" y="256" width="16" height="16" fill="#C9CED6"/>
<rect x="96" y="272" width="16" height="16" fill="#C9CED6"/>
<rect x="96" y="288" width="16" height="16" fill="#C9CED6"/>
<rect x="112" y="160" width="16" height="16" fill="#C9CED6"/>
<rect x="112" y="176" width="16" height="16" fill="#C9CED6"/>
<rect x="112" y="192" width="16" height="16" fill="#C9CED6"/>
<rect x="112" y="208" width="16" height="16" fill="#C9CED6"/>
<rect x="112" y="224" width="16" height="16" fill="#C9CED6"/>
<rect x="112" y="240" width="16" height="16" fill="#C9CED6"/>
<rect x="112" y="256" width="16" height="16" fill="#C9CED6"/>
<rect x="112" y="272" width="16" height="16" fill="#C9CED6"/>
<rect x="112" y="288" width="16" height="16" fill="#C9CED6"/>
<rect x="128" y="144" width="16" height="16" fill="#C9CED6"/>
<rect x="128" y="160" width="16" height="16" fill="#C9CED6"/>
<rect x="128" y="176" width="16" height="16" fill="#C9CED6"/>
<rect x="128" y="192" width="16" height="16" fill="#C9CED6"/>
<rect x="128" y="208" width="16" height="16" fill="#C9CED6"/>
<rect x="128" y="224" width="16" height="16" fill="#C9CED6"/>
<rect x="128" y="240" width="16" height="16" fill="#C9CED6"/>
<rect x="128" y="256" width="16" height="16" fill="#C9CED6"/>
<rect x="128" y="272" width="16" height="16" fill="#C9CED6"/>
<rect x="128" y="288" width="16" height="16" fill="#C9CED6"/>
<rect x="128" y="304" width="16" height="16" fill="#C9CED6"/>
<rect x="144" y="128" width="16" height="16" fill="#C9CED6"/>
<rect x="144" y="144" width="16" height="16" fill="#C9CED6"/>
<rect x="144" y="160" width="16" height="16" fill="#C9CED6"/>
<rect x="144" y="176" width="16" height="16" fill="#C9CED6"/>
<rect x="144" y="192" width="16" height="16" fill="#C9CED6"/>
<rect x="144" y="208" width="16" height="16" fill="#C9CED6"/>
<rect x="144" y="224" width="16" height="16" fill="#C9CED6"/>
<rect x="144" y="240" width="16" height="16" fill="#C9CED6"/>
<rect x="144" y="256" width="16" height="16" fill="#C9CED6"/>
<rect x="144" y="272" width="16" height="16" fill="#C9CED6"/>
<rect x="144" y="288" width="16" height="16" fill="#C9CED6"/>
<rect x="144" y="304" width="16" height="16" fill="#C9CED6"/>
<rect x="160" y="64" width="16" height="16" fill="#C9CED6"/>
<rect x="160" y="80" width="16" height="16" fill="#C9CED6"/>
<rect x="160" y="96" width="16" height="16" fill="#C9CED6"/>
<rect x="160" y="112" width="16" height="16" fill="#C9CED6"/>
<rect x="160" y="128" width="16" height="16" fill="#C9CED6"/>
<rect x="160" y="144" width="16" height="16" fill="#C9CED6"/>
<rect x="160" y="160" width="16" height="16" fill="#C9CED6"/>
<rect x="160" y="176" width="16" height="16" fill="#C9CED6"/>
<rect x="160" y="192" width="16" height="16" fill="#C9CED6"/>
<rect x="160" y="208" width="16" height="16" fill="#C9CED6"/>
<rect x="160" y="224" width="16" height="16" fill="#C9CED6"/>
<rect x="160" y="240" width="16" height="16" fill="#C9CED6"/>
<rect x="160" y="256" width="16" height="16" fill="#C9CED6"/>
<rect x="160" y="272" width="16" height="16" fill="#C9CED6"/>
<rect x="160" y="288" width="16" height="16" fill="#C9CED6"/>
<rect x="160" y="304" width="16" height="16" fill="#C9CED6"/>
<rect x="160" y="320" width="16" height="16" fill="#C9CED6"/>
<rect x="176" y="64" width="16" height="16" fill="#C9CED6"/>
<rect x="176" y="80" width="16" height="16" fill="#C9CED6"/>
<rect x="176" y="96" width="16" height="16" fill="#C9CED6"/>
<rect x="176" y="112" width="16" height="16" fill="#C9CED6"/>
<rect x="176" y="128" width="16" height="16" fill="#C9CED6"/>
<rect x="176" y="144" width="16" height="16" fill="#C9CED6"/>
<rect x="176" y="160" width="16" height="16" fill="#C9CED6"/>
<rect x="176" y="176" width="16" height="16" fill="#C9CED6"/>
<rect x="176" y="192" width="16" height="16" fill="#C9CED6"/>
<rect x="176" y="208" width="16" height="16" fill="#C9CED6"/>
<rect x="176" y="224" width="16" height="16" fill="#C9CED6"/>
<rect x="176" y="240" width="16" height="16" fill="#C9CED6"/>
<rect x="176" y="256" width="16" height="16" fill="#C9CED6"/>
<rect x="176" y="272" width="16" height="16" fill="#C9CED6"/>
<rect x="176" y="288" width="16" height="16" fill="#C9CED6"/>
<rect x="176" y="304" width="16" height="16" fill="#C9CED6"/>
<rect x="176" y="320" width="16" height="16" fill="#C9CED6"/>
<rect x="192" y="144" width="16" height="16" fill="#C9CED6"/>
<rect x="192" y="160" width="16" height="16" fill="#C9CED6"/>
<rect x="192" y="176" width="16" height="16" fill="#C9CED6"/>
<rect x="192" y="192" width="16" height="16" fill="#C9CED6"/>
<rect x="192" y="208" width="16" height="16" fill="#C9CED6"/>
<rect x="192" y="224" width="16" height="16" fill="#C9CED6"/>
<rect x="192" y="240" width="16" height="16" fill="#C9CED6"/>
<rect x="192" y="256" width="16" height="16" fill="#C9CED6"/>
<rect x="192" y="272" width="16" height="16" fill="#C9CED6"/>
<rect x="192" y="288" width="16" height="16" fill="#C9CED6"/>
<rect x="192" y="304" width="16" height="16" fill="#C9CED6"/>
<rect x="192" y="320" width="16" height="16" fill="#C9CED6"/>
<rect x="208" y="160" width="16" height="16" fill="#C9CED6"/>
<rect x="208" y="176" width="16" height="16" fill="#C9CED6"/>
<rect x="208" y="192" width="16" height="16" fill="#C9CED6"/>
<rect x="208" y="208" width="16" height="16" fill="#C9CED6"/>
<rect x="208" y="224" width="16" height="16" fill="#C9CED6"/>
<rect x="208" y="240" width="16" height="16" fill="#C9CED6"/>
<rect x="208" y="256" width="16" height="16" fill="#C9CED6"/>
<rect x="208" y="272" width="16" height="16" fill="#C9CED6"/>
<rect x="208" y="288" width="16" height="16" fill="#C9CED6"/>
<rect x="208" y="304" width="16" height="16" fill="#C9CED6"/>
<rect x="208" y="320" width="16" height="16" fill="#C9CED6"/>
<rect x="224" y="160" width="16" height="16" fill="#C9CED6"/>
<rect x="224" y="176" width="16" height="16" fill="#C9CED6"/>
<rect x="224" y="192" width="16" height="16" fill="#C9CED6"/>
<rect x="224" y="208" width="16" height="16" fill="#C9CED6"/>
<rect x="224" y="224" width="16" height="16" fill="#C9CED6"/>
<rect x="224" y="240" width="16" height="16" fill="#C9CED6"/>
<rect x="224" y="256" width="16" height="16" fill="#C9CED6"/>
<rect x="224" y="272" width="16" height="16" fill="#C9CED6"/>
<rect x="224" y="288" width="16" height="16" fill="#C9CED6"/>
<rect x="224" y="304" width="16" height="16" fill="#C9CED6"/>
<rect x="224" y="320" width="16" height="16" fill="#C9CED6"/>
<rect x="240" y="160" width="16" height="16" fill="#C9CED6"/>
<rect x="240" y="176" width="16" height="16" fill="#C9CED6"/>
<rect x="240" y="192" width="16" height="16" fill="#C9CED6"/>
<rect x="240" y="208" width="16" height="16" fill="#C9CED6"/>
<rect x="240" y="224" width="16" height="16" fill="#C9CED6"/>
<rect x="240" y="240" width="16" height="16" fill="#C9CED6"/>
<rect x="240" y="256" width="16" height="16" fill="#C9CED6"/>
<rect x="240" y="272" width="16" height="16" fill="#C9CED6"/>
<rect x="240" y="288" width="16" height="16" fill="#C9CED6"/>
<rect x="240" y="304" width="16" height="16" fill="#C9CED6"/>
<rect x="240" y="320" width="16" height="16" fill="#C9CED6"/>
<rect x="256" y="160" width="16" height="16" fill="#C9CED6"/>
<rect x="256" y="176" width="16" height="16" fill="#C9CED6"/>
<rect x="256" y="192" width="16" height="16" fill="#C9CED6"/>
<rect x="256" y="208" width="16" height="16" fill="#C9CED6"/>
<rect x="256" y="224" width="16" height="16" fill="#C9CED6"/>
<rect x="256" y="240" width="16" height="16" fill="#C9CED6"/>
<rect x="256" y="256" width="16" height="16" fill="#C9CED6"/>
<rect x="256" y="272" width="16" height="16" fill="#C9CED6"/>
<rect x="256" y="288" width="16" height="16" fill="#C9CED6"/>
<rect x="256" y="304" width="16" height="16" fill="#C9CED6"/>
<rect x="256" y="320" width="16" height="16" fill="#C9CED6"/>
<rect x="272" y="160" width="16" height="16" fill="#C9CED6"/>
<rect x="272" y="176" width="16" height="16" fill="#C9CED6"/>
<rect x="272" y="192" width="16" height="16" fill="#C9CED6"/>
<rect x="272" y="208" width="16" height="16" fill="#C9CED6"/>
<rect x="272" y="224" width="16" height="16" fill="#C9CED6"/>
<rect x="272" y="240" width="16" height="16" fill="#C9CED6"/>
<rect x="272" y="256" width="16" height="16" fill="#C9CED6"/>
<rect x="272" y="272" width="16" height="16" fill="#C9CED6"/>
<rect x="272" y="288" width="16" height="16" fill="#C9CED6"/>
<rect x="272" y="304" width="16" height="16" fill="#C9CED6"/>
<rect x="272" y="320" width="16" height="16" fill="#C9CED6"/>
<rect x="288" y="160" width="16" height="16" fill="#C9CED6"/>
<rect x="288" y="176" width="16" height="16" fill="#C9CED6"/>
<rect x="288" y="192" width="16" height="16" fill="#C9CED6"/>
<rect x="288" y="208" width="16" height="16" fill="#C9CED6"/>
<rect x="288" y="224" width="16" height="16" fill="#C9CED6"/>
<rect x="288" y="240" width="16" height="16" fill="#C9CED6"/>
<rect x="288" y="256" width="16" height="16" fill="#C9CED6"/>
<rect x="288" y="272" width="16" height="16" fill="#C9CED6"/>
<rect x="288" y="288" width="16" height="16" fill="#C9CED6"/>
<rect x="288" y="304" width="16" height="16" fill="#C9CED6"/>
<rect x="288" y="320" width="16" height="16" fill="#C9CED6"/>
<rect x="304" y="144" width="16" height="16" fill="#C9CED6"/>
<rect x="304" y="160" width="16" height="16" fill="#C9CED6"/>
<rect x="304" y="176" width="16" height="16" fill="#C9CED6"/>
<rect x="304" y="192" width="16" height="16" fill="#C9CED6"/>
<rect x="304" y="208" width="16" height="16" fill="#C9CED6"/>
<rect x="304" y="224" width="16" height="16" fill="#C9CED6"/>
<rect x="304" y="240" width="16" height="16" fill="#C9CED6"/>
<rect x="304" y="256" width="16" height="16" fill="#C9CED6"/>
<rect x="304" y="272" width="16" height="16" fill="#C9CED6"/>
<rect x="304" y="288" width="16" height="16" fill="#C9CED6"/>
<rect x="304" y="304" width="16" height="16" fill="#C9CED6"/>
<rect x="304" y="320" width="16" height="16" fill="#C9CED6"/>
<rect x="320" y="64" width="16" height="16" fill="#C9CED6"/>
<rect x="320" y="80" width="16" height="16" fill="#C9CED6"/>
<rect x="320" y="96" width="16" height="16" fill="#C9CED6"/>
<rect x="320" y="112" width="16" height="16" fill="#C9CED6"/>
<rect x="320" y="128" width="16" height="16" fill="#C9CED6"/>
<rect x="320" y="144" width="16" height="16" fill="#C9CED6"/>
<rect x="320" y="160" width="16" height="16" fill="#C9CED6"/>
<rect x="320" y="176" width="16" height="16" fill="#C9CED6"/>
<rect x="320" y="192" width="16" height="16" fill="#C9CED6"/>
<rect x="320" y="208" width="16" height="16" fill="#C9CED6"/>
<rect x="320" y="224" width="16" height="16" fill="#C9CED6"/>
<rect x="320" y="240" width="16" height="16" fill="#C9CED6"/>
<rect x="320" y="256" width="16" height="16" fill="#C9CED6"/>
<rect x="320" y="272" width="16" height="16" fill="#C9CED6"/>
<rect x="320" y="288" width="16" height="16" fill="#C9CED6"/>
<rect x="320" y="304" width="16" height="16" fill="#C9CED6"/>
<rect x="320" y="320" width="16" height="16" fill="#C9CED6"/>
<rect x="336" y="64" width="16" height="16" fill="#C9CED6"/>
<rect x="336" y="80" width="16" height="16" fill="#C9CED6"/>
<rect x="336" y="96" width="16" height="16" fill="#C9CED6"/>
<rect x="336" y="112" width="16" height="16" fill="#C9CED6"/>
<rect x="336" y="128" width="16" height="16" fill="#C9CED6"/>
<rect x="336" y="144" width="16" height="16" fill="#C9CED6"/>
<rect x="336" y="160" width="16" height="16" fill="#C9CED6"/>
<rect x="336" y="176" width="16" height="16" fill="#C9CED6"/>
<rect x="336" y="192" width="16" height="16" fill="#C9CED6"/>
<rect x="336" y="208" width="16" height="16" fill="#C9CED6"/>
<rect x="336" y="224" width="16" height="16" fill="#C9CED6"/>
<rect x="336" y="240" width="16" height="16" fill="#C9CED6"/>
<rect x="336" y="256" width="16" height="16" fill="#C9CED6"/>
<rect x="336" y="272" width="16" height="16" fill="#C9CED6"/>
<rect x="336" y="288" width="16" height="16" fill="#C9CED6"/>
<rect x="336" y="304" width="16" height="16" fill="#C9CED6"/>
<rect x="336" y="320" width="16" height="16" fill="#C9CED6"/>
<rect x="352" y="128" width="16" height="16" fill="#C9CED6"/>
<rect x="352" y="144" width="16" height="16" fill="#C9CED6"/>
<rect x="352" y="160" width="16" height="16" fill="#C9CED6"/>
<rect x="352" y="176" width="16" height="16" fill="#C9CED6"/>
<rect x="352" y="192" width="16" height="16" fill="#C9CED6"/>
<rect x="352" y="208" width="16" height="16" fill="#C9CED6"/>
<rect x="352" y="224" width="16" height="16" fill="#C9CED6"/>
<rect x="352" y="240" width="16" height="16" fill="#C9CED6"/>
<rect x="352" y="256" width="16" height="16" fill="#C9CED6"/>
<rect x="352" y="272" width="16" height="16" fill="#C9CED6"/>
<rect x="352" y="288" width="16" height="16" fill="#C9CED6"/>
<rect x="352" y="304" width="16" height="16" fill="#C9CED6"/>
<rect x="368" y="144" width="16" height="16" fill="#C9CED6"/>
<rect x="368" y="160" width="16" height="16" fill="#C9CED6"/>
<rect x="368" y="176" width="16" height="16" fill="#C9CED6"/>
<rect x="368" y="192" width="16" height="16" fill="#C9CED6"/>
<rect x="368" y="208" width="16" height="16" fill="#C9CED6"/>
<rect x="368" y="224" width="16" height="16" fill="#C9CED6"/>
<rect x="368" y="240" width="16" height="16" fill="#C9CED6"/>
<rect x="368" y="256" width="16" height="16" fill="#C9CED6"/>
<rect x="368" y="272" width="16" height="16" fill="#C9CED6"/>
<rect x="368" y="288" width="16" height="16" fill="#C9CED6"/>
<rect x="368" y="304" width="16" height="16" fill="#C9CED6"/>
<rect x="384" y="160" width="16" height="16" fill="#C9CED6"/>
<rect x="384" y="176" width="16" height="16" fill="#C9CED6"/>
<rect x="384" y="192" width="16" height="16" fill="#C9CED6"/>
<rect x="384" y="208" width="16" height="16" fill="#C9CED6"/>
<rect x="384" y="224" width="16" height="16" fill="#C9CED6"/>
<rect x="384" y="240" width="16" height="16" fill="#C9CED6"/>
<rect x="384" y="256" width="16" height="16" fill="#C9CED6"/>
<rect x="384" y="272" width="16" height="16" fill="#C9CED6"/>
<rect x="384" y="288" width="16" height="16" fill="#C9CED6"/>
<rect x="400" y="176" width="16" height="16" fill="#C9CED6"/>
<rect x="400" y="192" width="16" height="16" fill="#C9CED6"/>
<rect x="400" y="208" width="16" height="16" fill="#C9CED6"/>
<rect x="400" y="224" width="16" height="16" fill="#C9CED6"/>
<rect x="400" y="240" width="16" height="16" fill="#C9CED6"/>
<rect x="400" y="256" width="16" height="16" fill="#C9CED6"/>
<rect x="400" y="272" width="16" height="16" fill="#C9CED6"/>
<rect x="400" y="288" width="16" height="16" fill="#C9CED6"/>
<rect x="416" y="192" width="16" height="16" fill="#C9CED6"/>
<rect x="416" y="208" width="16" height="16" fill="#C9CED6"/>
<rect x="416" y="224" width="16" height="16" fill="#C9CED6"/>
<rect x="416" y="240" width="16" height="16" fill="#C9CED6"/>
<rect x="416" y="256" width="16" height="16" fill="#C9CED6"/>
<rect x="416" y="272" width="16" height="16" fill="#C9CED6"/>
<rect x="432" y="224" width="16" height="16" fill="#C9CED6"/>
<rect x="432" y="240" width="16" height="16" fill="#C9CED6"/>
<rect x="432" y="256" width="16" height="16" fill="#C9CED6"/>
<rect x="112" y="176" width="16" height="16" fill="#F4A7B9"/>
<rect x="128" y="160" width="16" height="16" fill="#F4A7B9"/>
<rect x="128" y="192" width="16" height="16" fill="#F4A7B9"/>
<rect x="144" y="176" width="16" height="16" fill="#F4A7B9"/>
<rect x="160" y="80" width="16" height="16" fill="#F4A7B9"/>
<rect x="160" y="96" width="16" height="16" fill="#F4A7B9"/>
<rect x="320" y="80" width="16" height="16" fill="#F4A7B9"/>
<rect x="320" y="96" width="16" height="16" fill="#F4A7B9"/>
<rect x="336" y="176" width="16" height="16" fill="#F4A7B9"/>
<rect x="352" y="160" width="16" height="16" fill="#F4A7B9"/>
<rect x="352" y="192" width="16" height="16" fill="#F4A7B9"/>
<rect x="368" y="176" width="16" height="16" fill="#F4A7B9"/>
<rect x="176" y="208" width="16" height="16" fill="#111111"/>
<rect x="224" y="272" width="16" height="16" fill="#111111"/>
<rect x="240" y="240" width="16" height="16" fill="#111111"/>
<rect x="240" y="256" width="16" height="16" fill="#111111"/>
<rect x="256" y="240" width="16" height="16" fill="#111111"/>
<rect x="256" y="256" width="16" height="16" fill="#111111"/>
<rect x="272" y="272" width="16" height="16" fill="#111111"/>
<rect x="320" y="208" width="16" height="16" fill="#111111"/>
</svg>